<svg version="1.1" id="Layer_1" xmlns="http://www.w3.org/2000/svg" xmlns:xlink="http://www.w3.org/1999/xlink" x="0px" y="0px"
	 width="100%" viewBox="0 0 1024 288" enable-background="new 0 0 1024 288" xml:space="preserve">
<path fill="#000000" opacity="1.000000" stroke="none" 
	d="
M475.646912,128.595840 
	C480.688385,148.503113 478.370392,167.299759 470.119995,185.492249 
	C462.953308,201.294922 450.443573,210.491241 433.692108,213.595184 
	C418.788727,216.356689 404.165802,215.336273 390.735962,207.209641 
	C384.679535,203.544785 380.001953,198.441864 375.223328,191.807922 
	C375.223328,198.191833 375.222565,203.448898 375.223480,208.705948 
	C375.226074,223.369644 375.091919,238.035385 375.309753,252.695892 
	C375.381958,257.556183 372.821442,258.021332 369.025940,258.051056 
	C365.323303,258.080017 363.633423,256.981445 363.640778,252.913712 
	C363.738831,198.757965 363.770386,144.601807 363.618408,90.446312 
	C363.603546,85.144501 366.649567,85.742638 370.044830,85.475693 
	C373.924286,85.170670 374.413757,87.168785 374.345825,90.299019 
	C374.208771,96.614891 374.304993,102.935829 374.304993,109.338905 
	C376.306580,109.418434 376.677368,107.837029 377.218903,106.851906 
	C388.313110,86.670403 409.936279,78.910553 432.863525,83.190063 
	C453.211853,86.988197 465.173492,99.824104 472.339813,118.219269 
	C473.605194,121.467369 474.470001,124.871513 475.646912,128.595840 
M380.165527,118.673439 
	C374.340698,135.223221 373.161133,152.138763 376.825378,169.255814 
	C380.844849,188.032394 392.030212,204.094711 420.459045,205.473969 
	C436.796295,206.266602 454.188354,195.423721 461.644318,177.616348 
	C470.141205,157.323105 469.583649,136.999420 460.283936,117.129417 
	C452.666107,100.852898 439.480835,92.037491 421.542572,91.881165 
	C402.562195,91.715767 388.209259,99.938171 380.165527,118.673439 
z"/>
<path fill="#000000" opacity="1.000000" stroke="none" 
	d="
M228.759079,151.196686 
	C198.463394,151.204285 168.638657,151.197403 138.813934,151.211166 
	C132.235916,151.214218 131.981201,151.263214 132.382004,157.946701 
	C133.720001,180.258713 145.230576,199.711075 167.374039,203.867218 
	C185.329910,207.237366 201.947784,203.951126 214.054657,188.410629 
	C216.751495,184.948944 218.473999,181.001831 219.764496,176.822937 
	C220.348465,174.931870 221.002060,172.965240 222.091995,171.348297 
	C224.171005,168.263977 227.496872,167.877670 230.570694,169.125778 
	C233.593628,170.353226 231.990265,173.162048 231.506561,175.269882 
	C226.792526,195.812180 209.670319,211.037811 188.241821,214.265732 
	C169.769073,217.048370 153.336548,212.423935 139.531799,200.177261 
	C129.350693,191.145264 124.504555,178.972031 122.279015,165.543823 
	C118.918907,145.270081 121.001419,125.816452 131.938416,108.319221 
	C152.727737,75.060089 196.842056,72.465195 221.335587,102.813919 
	C231.963181,115.982025 234.131195,131.739471 233.373489,148.119690 
	C233.241455,150.973740 231.352310,151.169662 228.759079,151.196686 
M176.500000,140.842361 
	C188.643631,140.845901 200.787262,140.848373 212.930893,140.853271 
	C223.760239,140.857620 223.760254,140.858795 221.582031,130.060562 
	C214.938034,97.123978 183.046432,82.072289 155.016510,98.779160 
	C141.382584,106.905479 135.523453,119.911522 132.818649,134.938583 
	C132.010300,139.429535 132.934647,141.003586 137.572906,140.934219 
	C150.212906,140.745163 162.857330,140.852432 176.500000,140.842361 
z"/>
<path fill="#000000" opacity="1.000000" stroke="none" 
	d="
M601.336365,203.764801 
	C626.566467,209.533997 648.125610,199.210342 656.008301,175.471970 
	C656.575623,173.763763 657.366638,172.000076 658.504700,170.639420 
	C660.581787,168.155930 663.605652,168.044998 666.318359,169.086884 
	C669.279480,170.224136 667.623047,172.886292 667.246277,174.773621 
	C662.836792,196.863373 641.988098,214.111435 619.467285,214.380219 
	C611.145020,214.479538 602.864563,214.577911 594.776184,211.800262 
	C579.661377,206.609619 568.814209,196.792465 563.210327,181.936050 
	C553.663574,156.626495 554.340027,131.525757 568.189331,107.920074 
	C578.419128,90.483826 594.777588,81.646896 614.805481,82.067108 
	C636.006653,82.511940 653.194336,91.457985 662.826172,111.406723 
	C668.258484,122.657738 669.422913,135.015289 670.495667,147.309097 
	C670.733704,150.036987 669.380615,150.894455 667.028015,150.955490 
	C665.363403,150.998703 663.697632,151.014130 662.032410,151.014252 
	C633.051636,151.016357 604.070801,151.015045 575.090027,151.012329 
	C568.274841,151.011703 568.211853,151.074249 568.387573,158.056839 
	C568.932312,179.699097 581.398987,197.167740 601.336365,203.764801 
M656.333008,125.187889 
	C652.087463,110.602356 643.803650,99.309166 628.965454,94.484566 
	C602.440369,85.860023 571.879883,102.160645 568.870605,137.163712 
	C568.599365,140.319092 570.205872,140.785339 572.729431,140.760818 
	C579.215942,140.697769 585.703430,140.726089 592.190491,140.727295 
	C612.483398,140.731049 632.776367,140.752029 653.069275,140.737411 
	C658.811707,140.733276 659.301514,140.086716 658.215271,134.270767 
	C657.697327,131.497650 657.115967,128.736343 656.333008,125.187889 
z"/>
<path fill="#000000" opacity="1.000000" stroke="none" 
	d="
M786.141602,188.628448 
	C780.981628,203.732590 769.028503,209.956039 755.179382,212.918564 
	C740.414673,216.076981 725.680359,215.118469 711.565674,209.131256 
	C696.607605,202.786285 688.350220,191.286850 686.025635,175.389862 
	C685.676575,173.002747 685.162781,169.917358 689.024963,169.849106 
	C692.059021,169.795502 695.574829,168.397995 696.472534,173.797485 
	C699.247192,190.487885 712.272278,202.334183 729.433533,204.696884 
	C741.260864,206.325226 752.570435,205.167679 763.472900,199.920486 
	C772.469604,195.590530 777.120789,188.260895 776.662231,177.900482 
	C776.253418,168.661865 771.458984,162.566910 761.908508,159.341263 
	C743.637512,153.170303 724.694702,149.185791 706.811707,141.660828 
	C695.634399,136.957489 690.537964,128.625061 690.104431,117.339172 
	C689.690063,106.552528 692.725830,96.687531 702.886292,90.898735 
	C724.636780,78.506638 746.713928,78.238640 768.349304,90.868515 
	C778.758667,96.945076 783.355591,106.970222 783.304810,119.056046 
	C783.293762,121.679459 782.737122,123.677414 779.593384,123.842644 
	C776.583557,124.000832 773.842163,123.923386 773.305786,119.989586 
	C773.014893,117.856735 772.618164,115.718010 772.032471,113.648949 
	C768.127014,99.853119 757.697693,94.109535 744.619141,92.513939 
	C732.662537,91.055229 721.039978,92.833649 710.320984,98.846672 
	C702.858643,103.032814 700.321716,109.618614 701.041809,117.771507 
	C701.740845,125.685738 705.831116,131.159958 713.336060,133.763931 
	C727.184143,138.568771 741.420227,142.016891 755.637085,145.517517 
	C758.545166,146.233566 761.458740,146.941055 764.332092,147.781631 
	C785.497742,153.973526 790.024658,172.497604 786.141602,188.628448 
z"/>
<path fill="#000000" opacity="1.000000" stroke="none" 
	d="
M845.518433,92.513832 
	C840.533386,93.529572 835.964966,94.502823 831.688354,96.418205 
	C822.635925,100.472610 818.393677,107.843796 819.093140,118.111679 
	C819.670105,126.582176 824.727661,132.629013 834.127441,135.206787 
	C846.474609,138.592896 858.936401,141.559204 871.322937,144.804947 
	C879.532410,146.956131 887.803894,148.970718 894.462952,154.808044 
	C911.747681,169.959793 908.198608,198.149216 887.428345,207.942444 
	C867.326843,217.420395 846.763855,217.775345 826.653076,208.173172 
	C812.985107,201.647171 805.692749,190.132919 804.660278,174.905899 
	C804.507751,172.656006 804.172119,169.952744 807.742371,169.792038 
	C810.781433,169.655258 813.440186,169.394714 814.683472,173.510437 
	C819.401672,189.129059 829.622070,199.685883 845.289246,204.455002 
	C860.397827,209.054108 874.348877,205.857788 886.810181,196.573898 
	C894.434631,190.893555 896.179260,182.610657 894.457214,173.697662 
	C892.905090,165.663727 887.282471,161.457565 879.690125,159.080505 
	C861.602905,153.417679 843.138000,149.043274 825.447632,141.981674 
	C814.123535,137.461288 809.089844,129.270355 808.317078,118.001854 
	C807.610840,107.702560 810.617737,98.522743 819.375183,92.113937 
	C837.809998,78.623123 870.511841,78.723747 888.621765,92.561974 
	C897.366028,99.243690 901.411682,108.474060 901.343750,119.518028 
	C901.327881,122.092384 900.565979,123.750381 897.744202,123.759338 
	C895.159851,123.767548 892.157471,124.552116 891.343140,120.786598 
	C891.028076,119.329636 890.905212,117.832161 890.628052,116.365768 
	C888.511230,105.167236 881.925293,97.774635 871.107178,94.530807 
	C862.932068,92.079491 854.480713,91.270874 845.518433,92.513832 
z"/>
<path fill="#000000" opacity="1.000000" stroke="none" 
	d="
M294.441681,155.002777 
	C291.794495,154.613907 291.226501,156.739746 290.210510,158.093643 
	C278.511719,173.683777 266.642792,189.149200 255.613907,205.232910 
	C251.253830,211.591339 244.822311,213.698975 238.192398,210.486893 
	C241.920364,205.364609 245.529343,200.304550 249.242767,195.322372 
	C260.691681,179.961807 272.090485,164.562134 283.728394,149.345612 
	C286.109375,146.232498 285.965942,144.187836 283.623535,141.182907 
	C270.614899,124.495087 257.807892,107.650085 244.939621,90.852936 
	C243.848328,89.428459 242.418930,88.183403 242.194687,86.263710 
	C248.213577,82.842598 255.616226,84.974403 260.291565,91.705002 
	C269.802063,105.396271 279.903778,118.643860 290.038635,131.869324 
	C291.132263,133.296448 292.298981,134.667542 293.305267,135.908585 
	C295.468903,135.569107 296.043457,134.031433 296.909729,132.875549 
	C307.299744,119.012123 317.672302,105.135551 328.027588,91.246132 
	C332.595001,85.119957 338.496490,83.230385 344.368896,86.111893 
	C344.825317,87.839699 343.536133,88.896706 342.678223,90.024551 
	C330.475677,106.066902 318.263458,122.102135 305.980255,138.082748 
	C301.104401,144.426315 301.060120,145.906326 305.976562,152.445908 
	C318.992859,169.759476 331.989136,187.088165 344.941132,204.449844 
	C346.305267,206.278427 348.070282,207.937027 348.452454,210.351212 
	C343.228760,214.130600 335.597900,211.948776 331.115295,205.313049 
	C319.546326,188.187210 307.186890,171.638123 294.441681,155.002777 
z"/>
<path fill="#000000" opacity="1.000000" stroke="none" 
	d="
M508.310913,91.119095 
	C508.315857,96.868965 508.315857,102.131538 508.315857,108.376045 
	C511.603516,104.719131 513.960083,101.752274 516.666687,99.149483 
	C526.397095,89.792480 538.529663,86.183067 551.593567,84.979347 
	C554.463257,84.714928 557.277466,84.278572 557.382507,88.822601 
	C557.475220,92.830894 556.732483,95.021416 552.072266,95.064667 
	C530.217957,95.267471 515.051086,111.138008 510.516632,126.718819 
	C509.114563,131.536377 508.393951,136.458633 508.394104,141.484711 
	C508.394775,163.135498 508.340759,184.786438 508.424591,206.436890 
	C508.438171,209.949265 507.843262,212.167984 503.599762,212.128372 
	C500.033600,212.095093 498.505371,211.005478 498.587738,207.222290 
	C498.783508,198.233154 498.649323,189.236862 498.649078,180.243454 
	C498.648285,150.598526 498.748291,120.952911 498.545288,91.309364 
	C498.512573,86.534012 500.178253,85.259666 504.612549,85.519127 
	C508.376556,85.739372 508.330231,88.031578 508.310913,91.119095 
z"/>
</svg>